<?xml version="1.0" encoding="UTF-8"?>
<svg id="Layer_1" data-name="Layer 1" xmlns="http://www.w3.org/2000/svg" viewBox="0 0 489.7 446.45">
  <defs>
    <style>
      .cls-1 {
        fill: #f4c2c2;
      }
    </style>
  </defs>
  <path class="cls-1" d="M447.71,302.34c-.58.77-2.67.94-2.59,2.78,2.48,34.44-19.1,56.51-35.74,83.1-8.65,13.83-24.47,49.26-37.9,55.4-14.07,6.44-37.36.07-52.55-1.46-21.28-2.14-42.43-3.47-63.52-7.19-6.63-1.17-19.51-5.64-24.86-5.66-8.9-.04-29.32,7.49-39.59,9.59-40.28,8.24-71.79,5.59-107.15-15.98-14.29-8.72-26.44-20.12-40.04-29.69-8.73-6.14-18.76-11.09-27.15-17.04-30.97-21.97-9.57-47.11-7.49-75.91,1.16-16.08-1.38-31.45-2.04-47.14-.78-18.27-1.46-40.62,19.67-46.69-2.78,6.03-6.16,11.46-8.1,17.91-7.82,25.97-1.81,52.64-.69,78.78.55,12.92-2.42,37.56,1.76,48.33,6.49,16.73,43.76,28.65,59.61,38.6,38.75,24.34,41.57,56.04,97.7,42.75,3.97-.94,33.41-10.46,33.37-12.77-5.85-6.77-13.18-.7-20.39,1.19-10.32,2.71-20.26,4.32-31.04,3.12-38.95-4.32-55.1-58.98-89.59-75.4-3.22-1.53-18.99-6.08-19.58-6.94-2.3-3.34,4.2-7.98,5.53-11.28,3.33-8.21,1.78-22.57.9-31.49-.72-7.32-9.61-51.07-5.87-53.53,3.1-.68,4.4,2.29,5.7,4.59,17.81,31.52,25.56,60.26,55.16,85.28,9.48,8.01,22.9,12.1,27.55,24.51,1.48,3.95,1.7,8.43,3.4,12.31,5.06,11.54,7.6,2.94,14.17,1.4,9.72-2.27,20.19,3.68,29.7,5.79,20.77,4.6,51.22,2.53,71.74-3.54,10.36-3.07,30.76-15.33,40.07-14.06,14.2,1.93,16.1,8.24,34.55,4.23,28.81-6.26,39.9-18.11,61.76-34.49,21.49-16.1,35.99-19.65,50.17-45.09,30.24-54.24,4.19-110.06-23.23-158.8-7.03-12.49-15.11-23.93-27.97-30.96l-10.84-4.37c49.02-2.39,61.13,47.59,78.39,82.17,7.3,14.62,13.68,19.08,22.2,30.83,22.84,31.48-17.64,73.63-35.17,96.8ZM190.79,391.07c33.96,19.81,70.52,32.87,109.64,38.17,32.93,4.46,70.35,9.05,87.57-26.07l32.59-59.23c-14.8,10.78-31.74,19.38-41.43,35.66-4.68,7.86-10.34,28.31-16,33.11-9.71,8.24-27.22-9.59-35.58-14.54-32.09-19.02-89.41-15.74-125.34-9.86l-11.45,2.77Z"/>
  <path class="cls-1" d="M296.84,63.08c.2,1.85-2.06.79-3.14.69-6.99-.68-12.58-2.18-19.97-1.72-12,.74-32.42,6.82-15.51,19.51,11.76,8.83,27.79,12.82,41.05,23.77,45.87,37.9,33.79,98.07-2.4,137.98-30.59,33.73-74.38,48.86-111.7,72.98-16.99-4.15-34.34-9.25-48.41-19.96l-13.75-14.73c3.9,15.07,12.23,33.58,28.67,38.12,23.98,6.62,47.56,8.94,71.5,18.85,5.57,2.31,10.85,6.17,16.05,8.5,16.33,7.33,39.73-5.04,58.24-6.92,1.17-.12,5.25-1.04,5.27.84-26.26,14.55-45.55,27.17-77.08,25.54-49.89-2.58-99.59-32.95-107.42-85.07-1.78-11.88-2.37-14.29-5.74-25.69-2.23-7.54-4.32-15.16-6.17-22.8,12.7,10.87,22.31-4.52,28-14.71,14.51-26.01,28.87-74.18,54.17-90.2s65.42-10.61,91.86-2.84c13.93,4.09,24.65,9.87,32.69,22.3.75-2.07-1.63-5.38-2.65-7.17-19.93-35.08-74.48-63.36-112.93-71.7-24.31-5.27-45.88-.2-70.08-1.61-13.03-.76-25.74-4.59-38.68-5.86-1.68,11.41-5.3,22.01-12.81,30.89-8.29,9.79-21.89,16.55-28.9,27.08-17.91,26.88-5.64,71.62,3.88,100.04l14.69,40.31c-17.5-27.46-33.16-51.75-36.71-85.07-1.48-13.92-3.35-54.53,1.36-66.15,5.33-13.14,23.39-17.9,32.41-27.5,2.1-2.24,4.48-5.9,6.18-8.55,3.22-5,11.68-25.22,16.45-25.86,3.06-.41,15.36,3.8,19.9,4.62,33.5,6.07,67.24-.59,100.81-1.69,31.27-1.03,61.5,3.28,90.88,13.8ZM249.7,122.98c-21.68-3.25-54.72,5.67-70.73,21.08-19.15,18.43-27.66,62.91-21.1,87.93,3.78,14.4,11.52,20.14,17.37,31.74,5.39,10.68,4.05,21.33,14.64,29.55,1.81,1.41,7.33,4.89,9.28,5.46,2.31.68,1.52-2.91,1.43-4.38-.44-7.16-1.68-17.14-3.42-24.08-2.55-10.18-16.57-36.25-16.16-43.56.44-7.76,9.6-26.33,13.88-33.34,9.79-15.99,25.58-33.6,45.96-33.08l-8.49,6.23c-18.07,14.94-34.34,84.58-3.56,90.77,15.53,3.12,38.06-18.07,55.27-14.5-2.42,4.78-5.62,9.11-8.45,13.64-.52.84-2.46,2.13-.89,3.04,15.57-14.77,28.58-32.18,30-54.46.57-8.94-1.52-37.92-6.48-44.67-.7-.95-1.49-1.77-2.48-2.43-13.75-6.32-24.25-19.2-39.82-21.07-1.51-.18-6.63-1.02-7.24.85,6.31.49,12.93,3.57,18.33,6.72,1.21.71,11.82,7.41,10.14,9-5.46-1.83-10.66-4.72-16.45-5.63-12.25-1.93-32.51-6.77-43.82-6.02-6.31.42-13.1,2.47-19.27,3.79l18.98-11.95,33.06-10.62Z"/>
  <path class="cls-1" d="M375.59,216.06l2.3.91c11.91-10.11,9.3-28.14,12.54-42.14.23-1.01,1.7-8.52,3.62-6.67,13.69,31.05,25.25,65.43,11.98,98.87-14.91,37.57-58.64,59.57-91.03,79.86-.5-4.42,3.87-10.57,6.56-14.07,11.27-14.66,26.68-20.56,40.02-31.68,6.83-5.69,16.23-15.53,11.34-24.93-4.11-4.79-19.56-.41-25.22,1.23-14.57,4.23-34.36,13.6-47.79,20.96-14.56,7.97-23.56,17.18-40.54,21.33-20.29,4.96-44.41,3.27-64.65-1.33l44.85-14.55c22.76-10.27,44.11-24.68,60.2-43.9,6.36-7.6,11.62-18.84,17.71-25.5,2.36-2.58,7.05-4.6,8.71-7,3.57-5.15,3.11-28.38,4.06-36.2,1.28-10.51,5.37-20.81,4.94-31.49s-5.64-19.42-9.85-28.92c11.12,9.83,22.56,23.06,25.27,38.06,5.48,30.3-21.05,61.18-35.27,86-7.29,12.72-13.18,26.23-20.46,38.95,1.17.88,8.58-3.17,10.12-4.11,13.71-8.34,47.95-50.54,54.19-65.62,9.15-22.11,12.02-69.95,7.92-93.33-8.56-48.79-52.32-94.31-98.07-111.11-25.1-9.22-36.52-2.37-59.28,7.87-9.46,4.25-18.49,9.43-27.82,13.91C197.03,20.84,208.6-3.02,238.31.31c20.58,2.31,73.55,29.66,91.66,41.9,48.61,32.87,52.06,88.32,47.28,142.01-.94,10.52-4.8,21.22-1.66,31.83Z"/>
  <path class="cls-1" d="M263.45,117.07c-12.97-5.84-19.27-13.41-34.76-11.68-5.06.57-10.67,3.37-15.82,3.81-13.42,1.15-21.79-6.56-36.19-.82-27.24,10.84-72.02,73-75.99,101.77-.51,3.67-.21,7.34-.28,11.02-6.77-2.57-11.64-7.18-19.28-7.74-5.52-.41-9.77,1.54-15.08,1.84l14.7-13.28c17-20.14,19.95-46.94,23.61-72.15l5.83,14.28c5.59,5.2,11.16-3.6,14.02-7.68,10.32-14.71,14.94-29.9,30.88-40.81,27.94-19.13,74.13-10.18,99.05,10.61,1.19,1,10.37,9.77,9.3,10.82Z"/>
  <path class="cls-1" d="M277.04,167.32c-31.67-19.74-112.69-33.14-106.77,25.75.41,4.06,4.3,20.19,6.25,23.21.3.47,1.24,1.27,1.47.97,2.26-14.52,11.32-28.54,21.11-39.3,16.32-17.93,33.43-26.72,57.45-17.16,1.61.64,5.12,1.89,5.9,3.41-12.84-2.31-21.24-4.92-30.42,6.42-3.43,4.24-9.92,15.55-8.13,20.82.79,2.32,9.9,18.44,11.6,20.84,9.85,13.85,33.86,22.97,49.58,28.08,18.87-23.59,19.3-52.4.95-76.14-3.13,12.9-1.02,29.9-5.73,41.91-2.98,7.57-11.96,15.13-19.81,15.55,12.5-10.52,19.07-23.28,11.97-39.48-2.28-5.2-5.97-9.93-12.26-8.99-4.49,2.27-4.2,7.99.77,9.3l4.42-1.6c3.39,13.67-10.98,24.77-23.5,16.14-11.15-7.7-6.41-20.32-3-30.87,2.6,1.13,1.92,4.9,2.88,7.42,2.56,6.7,7.57,12.28,15.26,12.26,1.95,0,1.57-.1,1.49-1.99-5.89.57-9.12-4.5-11.79-8.83l7.86,1.95c-2.11-11.87,16.27-7.23,19.09,1.05l5.45,15.65c2.2-9.28-3.19-16.93-2.11-26.36Z"/>
  <path class="cls-1" d="M277.04,167.32c-1.07,9.43,4.32,17.08,2.11,26.36l-5.45-15.65c-2.81-8.29-21.2-12.93-19.09-1.05l-7.86-1.95c2.67,4.34,5.9,9.41,11.79,8.83.08,1.89.46,1.99-1.49,1.99-7.69.03-12.7-5.55-15.26-12.26-.96-2.51-.28-6.28-2.88-7.42-3.42,10.55-8.15,23.17,3,30.87,12.51,8.64,26.88-2.46,23.5-16.14l-4.42,1.6c-4.97-1.31-5.25-7.03-.77-9.3,6.29-.94,9.98,3.78,12.26,8.99,7.1,16.2.53,28.96-11.97,39.48,7.85-.42,16.83-7.98,19.81-15.55,4.72-12,2.6-29.01,5.73-41.91,18.35,23.74,17.93,52.54-.95,76.14-15.72-5.11-39.73-14.23-49.58-28.08-1.7-2.39-10.81-18.51-11.6-20.84-1.79-5.26,4.7-16.58,8.13-20.82,9.18-11.34,17.57-8.73,30.42-6.42-.78-1.52-4.29-2.77-5.9-3.41-24.02-9.56-41.13-.77-57.45,17.16-9.79,10.75-18.85,24.78-21.11,39.3-.23.3-1.17-.5-1.47-.97-1.95-3.01-5.85-19.15-6.25-23.21-5.92-58.89,75.1-45.49,106.77-25.75Z"/>
</svg>